<svg width="43.750000" height="40.000000" viewBox="0 0 43.75 40" fill="none" xmlns="http://www.w3.org/2000/svg" xmlns:xlink="http://www.w3.org/1999/xlink">
	<desc>
			Created with Pixso.
	</desc>
	<defs>
		<clipPath id="clip1_170">
			<rect id="vk-social-network-logo" width="43.750000" height="40.000000" fill="white" fill-opacity="0"/>
		</clipPath>
	</defs>
	<rect id="vk-social-network-logo" width="43.750000" height="40.000000" fill="#FFFFFF" fill-opacity="0"/>
	<g clip-path="url(#clip1_170)">
		<path id="Vector" d="M43.5181 29.2002C43.4651 29.0957 43.4157 29.0088 43.3698 28.9395C42.6108 27.6895 41.1602 26.1553 39.0191 24.3364L38.9738 24.2949L38.9512 24.2744L38.9283 24.2534L38.9053 24.2534C37.9335 23.4067 37.3182 22.8374 37.0605 22.5454C36.5889 21.9902 36.4833 21.4282 36.741 20.8584C36.9231 20.4282 37.607 19.519 38.7911 18.1304C39.414 17.3945 39.9073 16.8047 40.2716 16.3604C42.899 13.167 44.038 11.126 43.6886 10.2373L43.5529 10.0298C43.4617 9.90479 43.2263 9.79053 42.8471 9.68604C42.467 9.58203 41.9812 9.56445 41.3888 9.63428L34.8287 9.67529C34.7224 9.64111 34.5706 9.64404 34.373 9.68604C34.1755 9.72754 34.0767 9.74854 34.0767 9.74854L33.9626 9.80078L33.8719 9.86328C33.796 9.90479 33.7124 9.97754 33.6212 10.082C33.5305 10.1855 33.4547 10.3076 33.394 10.4463C32.6798 12.1265 31.8677 13.6885 30.9564 15.1323C30.3945 15.9932 29.8784 16.7393 29.4071 17.3711C28.9365 18.0024 28.5417 18.4678 28.223 18.7661C27.9039 19.0649 27.6158 19.3042 27.3572 19.4849C27.0989 19.6655 26.9018 19.7417 26.7653 19.7139C26.6284 19.686 26.4996 19.6582 26.3776 19.6304C26.1651 19.5054 25.9942 19.3354 25.8654 19.1201C25.736 18.9053 25.6489 18.6343 25.6033 18.3081C25.558 17.9814 25.5312 17.7007 25.5235 17.4644C25.5164 17.2285 25.5197 16.895 25.5351 16.4648C25.5509 16.0342 25.558 15.7427 25.558 15.5898C25.558 15.0625 25.5692 14.4897 25.5918 13.8716C25.6148 13.2539 25.6334 12.7646 25.6489 12.4038C25.6644 12.043 25.6716 11.6606 25.6716 11.2583C25.6716 10.8555 25.6448 10.5396 25.5918 10.3105C25.5395 10.0815 25.4591 9.85938 25.3532 9.64404C25.2467 9.42871 25.0909 9.26221 24.8863 9.14404C24.6813 9.02637 24.4265 8.93262 24.1232 8.86279C23.3183 8.69629 22.2933 8.60645 21.0478 8.59229C18.2234 8.56445 16.4085 8.73145 15.6037 9.09229C15.2848 9.24512 14.9962 9.45312 14.7382 9.7168C14.4648 10.0225 14.4266 10.1895 14.624 10.2168C15.5353 10.3413 16.1805 10.6401 16.5601 11.1118L16.697 11.3623C16.8034 11.5425 16.9097 11.8623 17.016 12.3203C17.1222 12.7783 17.1907 13.2852 17.2209 13.8403C17.2967 14.854 17.2967 15.7217 17.2209 16.4434C17.1449 17.1655 17.0731 17.728 17.0045 18.1304C16.936 18.5332 16.8336 18.8594 16.697 19.1094C16.5601 19.3594 16.4691 19.5122 16.4235 19.5674C16.3779 19.623 16.3399 19.6577 16.3098 19.6714C16.1124 19.7407 15.9071 19.7759 15.6946 19.7759C15.4819 19.7759 15.2238 19.6787 14.9202 19.4839C14.6166 19.2896 14.3015 19.0225 13.975 18.6821C13.6484 18.3418 13.2802 17.8667 12.87 17.2559C12.4601 16.645 12.0349 15.9229 11.5945 15.0898L11.2301 14.4858C11.0023 14.0972 10.6912 13.5312 10.2963 12.7886C9.90125 12.0454 9.552 11.3267 9.24844 10.6328C9.12708 10.3413 8.94479 10.1191 8.70184 9.96631L8.58783 9.90381C8.51202 9.84814 8.39038 9.78955 8.22345 9.72656C8.0563 9.66406 7.8819 9.61914 7.69952 9.59131L1.45813 9.63281C0.820343 9.63281 0.387604 9.76514 0.159729 10.0288L0.0685425 10.1538C0.0229797 10.2231 0 10.334 0 10.4868C0 10.6396 0.0455627 10.8271 0.136749 11.0493C1.04788 13.0068 2.03873 14.895 3.10925 16.7139C4.17978 18.5327 5.11008 19.998 5.89954 21.1079C6.68915 22.2188 7.49399 23.2671 8.31409 24.2529C9.13419 25.2388 9.67703 25.8706 9.94263 26.1479C10.2086 26.4263 10.4174 26.6338 10.5693 26.7729L11.1388 27.2725C11.5033 27.606 12.0385 28.0049 12.7446 28.4702C13.451 28.9355 14.2329 29.3936 15.0909 29.8452C15.9491 30.2959 16.9474 30.6636 18.0865 30.9482C19.2254 31.2334 20.3339 31.3477 21.4122 31.2925L24.0318 31.2925C24.5631 31.2505 24.9656 31.0977 25.2392 30.834L25.3298 30.7295C25.3907 30.647 25.4478 30.5181 25.5005 30.3447C25.5537 30.1714 25.5802 29.98 25.5802 29.772C25.5647 29.1753 25.6144 28.6372 25.728 28.1582C25.8415 27.6797 25.9709 27.3184 26.1157 27.0752C26.2603 26.8325 26.4236 26.6274 26.6052 26.4614C26.7873 26.2949 26.917 26.1938 26.9931 26.1592C27.0688 26.124 27.1292 26.1006 27.1747 26.0864C27.5392 25.9751 27.9681 26.083 28.4621 26.4092C28.9557 26.7358 29.4187 27.1387 29.8518 27.6172C30.2846 28.0967 30.8046 28.6343 31.4119 29.231C32.0197 29.8281 32.551 30.272 33.0064 30.564L33.4618 30.814C33.766 30.981 34.1608 31.1338 34.6469 31.2725C35.132 31.4111 35.5571 31.4458 35.9221 31.3765L41.7533 31.2935C42.33 31.2935 42.7788 31.2061 43.0971 31.0327C43.4161 30.8594 43.6056 30.668 43.6667 30.46C43.7277 30.252 43.7309 30.0156 43.6783 29.7515C43.6243 29.4883 43.571 29.3042 43.5181 29.2002Z" fill="#FFFFFF" fill-opacity="1.000000" fill-rule="nonzero"/>
	</g>
</svg>
